<?xml version="1.0" encoding="UTF-8"?>
<svg xmlns="http://www.w3.org/2000/svg" xmlns:xlink="http://www.w3.org/1999/xlink" width="375pt" height="375pt" viewBox="0 0 375 375" version="1.1">
<g id="surface130277">
<path fill="#67dbe2" style=" stroke:none;fill-rule:nonzero;fill-opacity:1;" d="M 277.5 15 C 265.167969 15 255 25.167969 255 37.5 L 255 45 L 210 45 L 210 142.5 L 225 142.5 L 225 123.28125 C 229.453125 125.886719 234.519531 127.5 240 127.5 L 330 127.5 C 335.480469 127.5 340.546875 125.886719 345 123.28125 L 345 157.5 L 247.5 157.5 L 247.5 172.5 L 360 172.5 L 360 45 L 315 45 L 315 37.5 C 315 25.167969 304.832031 15 292.5 15 Z M 277.5 30 L 292.5 30 C 296.746094 30 300 33.253906 300 37.5 L 300 45 L 270 45 L 270 37.5 C 270 33.253906 273.253906 30 277.5 30 Z M 225 60 L 345 60 L 345 97.5 C 345 105.792969 338.292969 112.5 330 112.5 L 240 112.5 C 231.707031 112.5 225 105.792969 225 97.5 Z M 285 90 C 280.871094 90 277.5 93.371094 277.5 97.5 C 277.5 101.628906 280.871094 105 285 105 C 289.128906 105 292.5 101.628906 292.5 97.5 C 292.5 93.371094 289.128906 90 285 90 Z M 187.5 157.5 L 187.5 172.5 L 206.894531 172.5 L 157.5 221.894531 L 157.5 202.5 L 142.5 202.5 L 142.5 247.5 L 187.5 247.5 L 187.5 232.5 L 168.105469 232.5 L 217.5 183.105469 L 217.5 202.5 L 232.5 202.5 L 232.5 157.5 Z M 82.5 202.5 C 70.167969 202.5 60 212.667969 60 225 L 60 232.5 L 15 232.5 L 15 360 L 165 360 L 165 262.5 L 150 262.5 L 150 285 C 150 293.261719 143.261719 300 135 300 L 45 300 C 36.738281 300 30 293.261719 30 285 L 30 247.5 L 127.5 247.5 L 127.5 232.5 L 120 232.5 L 120 225 C 120 212.667969 109.832031 202.5 97.5 202.5 Z M 82.5 217.5 L 97.5 217.5 C 101.746094 217.5 105 220.753906 105 225 L 105 232.5 L 75 232.5 L 75 225 C 75 220.753906 78.253906 217.5 82.5 217.5 Z M 90 277.5 C 85.871094 277.5 82.5 280.871094 82.5 285 C 82.5 289.128906 85.871094 292.5 90 292.5 C 94.128906 292.5 97.5 289.128906 97.5 285 C 97.5 280.871094 94.128906 277.5 90 277.5 Z M 30 310.808594 C 34.425781 313.417969 39.519531 315 45 315 L 135 315 C 140.480469 315 145.574219 313.417969 150 310.808594 L 150 345 L 30 345 Z M 30 310.808594 "/>
</g>
</svg>
