<?xml version="1.0" encoding="UTF-8"?>
<svg xmlns="http://www.w3.org/2000/svg" xmlns:xlink="http://www.w3.org/1999/xlink" width="375pt" height="375pt" viewBox="0 0 375 375" version="1.1">
<g id="surface135617">
<path fill="#67dbe2" style=" stroke:none;fill-rule:nonzero;fill-opacity:1;" d="M 256.640625 30.9375 C 248.996094 31.378906 241.464844 33.253906 234.375 36.796875 L 193.125 56.953125 L 75.9375 56.953125 L 9.375 40.78125 C 8.378906 40.488281 7.355469 40.429688 6.328125 40.546875 C 2.695312 40.988281 -0.0585938 43.972656 -0.234375 47.636719 C -0.410156 51.269531 2.050781 54.519531 5.625 55.3125 L 73.125 71.71875 L 74.0625 71.953125 L 162.421875 71.953125 L 98.671875 103.125 C 98.410156 103.242188 98.230469 103.476562 97.96875 103.59375 C 88.066406 107.957031 85.457031 121.496094 92.8125 129.375 L 92.578125 129.609375 C 92.695312 129.726562 92.929688 129.726562 93.046875 129.84375 C 115.371094 154.308594 150.730469 162.421875 181.875 150.234375 L 182.109375 150.234375 L 226.171875 133.125 L 317.109375 224.296875 C 323.996094 231.183594 323.996094 242.019531 317.109375 248.90625 C 310.222656 255.792969 299.386719 255.792969 292.5 248.90625 C 289.511719 246.503906 285.207031 246.738281 282.480469 249.433594 C 279.785156 252.160156 279.550781 256.464844 281.953125 259.453125 C 288.839844 266.339844 288.839844 277.410156 281.953125 284.296875 C 275.066406 291.183594 264.230469 291.183594 257.34375 284.296875 L 251.953125 278.90625 C 248.964844 276.503906 244.660156 276.738281 241.933594 279.433594 C 239.238281 282.160156 239.003906 286.464844 241.40625 289.453125 C 248.292969 296.339844 248.292969 307.410156 241.40625 314.296875 C 234.519531 321.183594 223.683594 321.183594 216.796875 314.296875 L 211.640625 308.90625 C 208.738281 305.917969 203.964844 305.886719 200.976562 308.789062 C 197.988281 311.691406 197.957031 316.464844 200.859375 319.453125 C 207.746094 326.339844 207.746094 337.410156 200.859375 344.296875 C 193.972656 351.183594 183.136719 351.183594 176.25 344.296875 L 166.875 334.921875 L 172.5 329.296875 C 183.488281 318.308594 183.488281 300.441406 172.5 289.453125 C 167.019531 283.972656 159.785156 281.25 152.578125 281.25 C 152.488281 281.25 152.433594 281.25 152.34375 281.25 C 152.460938 273.867188 149.738281 266.457031 144.140625 260.859375 C 138.660156 255.378906 131.425781 252.65625 124.21875 252.65625 C 123.839844 252.65625 123.425781 252.628906 123.046875 252.65625 C 123.28125 245.128906 120.585938 237.539062 114.84375 231.796875 C 109.363281 226.316406 102.128906 223.359375 94.921875 223.359375 C 94.542969 223.359375 94.128906 223.332031 93.75 223.359375 C 93.984375 215.832031 91.289062 208.242188 85.546875 202.5 C 80.066406 197.019531 72.832031 194.296875 65.625 194.296875 C 58.417969 194.296875 51.183594 197.019531 45.703125 202.5 L 38.90625 209.296875 L 8.671875 204.140625 C 8.203125 204.023438 7.734375 203.933594 7.265625 203.90625 C 3.136719 203.644531 -0.441406 206.808594 -0.703125 210.9375 C -0.964844 215.066406 2.199219 218.644531 6.328125 218.90625 L 30.9375 223.359375 C 28.710938 232.589844 31.027344 242.667969 38.203125 249.84375 C 44.003906 255.644531 51.707031 258.371094 59.296875 258.046875 C 58.972656 265.636719 61.699219 273.339844 67.5 279.140625 C 73.300781 284.941406 81.003906 287.667969 88.59375 287.34375 C 88.359375 294.871094 91.054688 302.460938 96.796875 308.203125 C 102.394531 313.800781 109.804688 316.523438 117.1875 316.40625 C 117.011719 323.816406 119.648438 331.289062 125.15625 336.796875 L 125.390625 337.03125 C 133.214844 344.675781 144.464844 346.699219 154.21875 343.359375 L 165.703125 354.84375 C 178.300781 367.441406 199.042969 367.441406 211.640625 354.84375 C 217.761719 348.722656 220.605469 340.636719 220.78125 332.578125 C 231.621094 335.449219 243.515625 333.28125 251.953125 324.84375 C 258.074219 318.722656 261.152344 310.636719 261.328125 302.578125 C 272.136719 305.417969 284.0625 303.28125 292.5 294.84375 C 299.707031 287.636719 302.433594 277.824219 301.40625 268.359375 C 310.871094 269.414062 320.683594 266.660156 327.890625 259.453125 C 335.949219 251.394531 338.816406 240.089844 336.5625 229.6875 L 341.015625 225.234375 L 368.671875 221.25 C 372.800781 220.605469 375.644531 216.707031 375 212.578125 C 374.355469 208.449219 370.457031 205.605469 366.328125 206.25 L 336.328125 210.9375 L 333.984375 211.171875 L 329.53125 215.625 C 329.003906 215.011719 328.476562 214.335938 327.890625 213.75 L 235.546875 121.40625 C 235.195312 121.054688 234.785156 120.730469 234.375 120.46875 C 234.285156 120.378906 234.230469 120.324219 234.140625 120.234375 C 232.175781 117.332031 228.488281 116.191406 225.234375 117.421875 L 176.484375 136.171875 C 150.847656 146.308594 121.992188 139.714844 103.828125 119.53125 L 103.59375 119.296875 C 102.628906 118.332031 102.566406 117.65625 103.828125 117.1875 L 104.296875 117.1875 L 104.53125 116.953125 L 197.109375 71.71875 C 198.691406 71.484375 200.183594 70.753906 201.328125 69.609375 L 240.9375 50.15625 L 241.171875 50.15625 C 255 43.242188 271.144531 44.648438 283.828125 53.203125 L 286.640625 56.484375 L 287.34375 57.421875 L 288.28125 57.890625 C 301.902344 67.265625 318.308594 69.753906 333.75 65.625 L 333.75 65.859375 L 334.21875 65.625 L 369.140625 58.359375 C 373.214844 57.449219 375.792969 53.410156 374.882812 49.335938 C 373.972656 45.261719 369.933594 42.683594 365.859375 43.59375 L 330.703125 51.09375 L 330.46875 51.328125 L 330.234375 51.328125 C 319.042969 54.433594 307.5 52.382812 297.421875 45.703125 L 294.609375 42.421875 L 293.90625 41.71875 L 292.96875 41.015625 C 284.355469 34.980469 274.511719 31.699219 264.375 30.9375 C 261.824219 30.761719 259.191406 30.792969 256.640625 30.9375 Z M 65.625 208.828125 C 68.90625 208.828125 72.246094 210.292969 75 213.046875 C 80.507812 218.554688 80.507812 226.289062 75 231.796875 L 69.140625 237.421875 L 68.4375 238.125 L 67.5 239.296875 C 61.992188 244.804688 54.257812 244.804688 48.75 239.296875 C 44.238281 234.785156 43.566406 228.867188 46.40625 223.828125 C 47.722656 222.890625 48.691406 221.601562 49.21875 220.078125 L 55.3125 214.21875 L 56.25 213.046875 C 59.003906 210.292969 62.34375 208.828125 65.625 208.828125 Z M 94.921875 238.125 C 98.203125 238.125 101.542969 239.589844 104.296875 242.34375 C 109.804688 247.851562 109.804688 255.351562 104.296875 260.859375 L 96.796875 268.359375 C 91.289062 273.867188 83.554688 273.867188 78.046875 268.359375 C 72.539062 262.851562 72.539062 255.351562 78.046875 249.84375 L 85.546875 242.34375 C 88.300781 239.589844 91.640625 238.125 94.921875 238.125 Z M 124.21875 267.421875 C 127.5 267.421875 130.605469 268.886719 133.359375 271.640625 C 137.902344 276.183594 138.660156 282.097656 135.703125 287.109375 C 134.675781 287.871094 133.59375 288.515625 132.65625 289.453125 L 125.15625 296.953125 L 125.15625 297.1875 L 124.921875 297.1875 C 124.101562 298.097656 123.488281 299.035156 122.8125 300 C 117.800781 302.957031 111.886719 302.199219 107.34375 297.65625 C 101.835938 292.148438 101.835938 284.648438 107.34375 279.140625 L 112.96875 273.28125 L 114.375 272.109375 L 114.84375 271.640625 C 117.597656 268.886719 120.9375 267.421875 124.21875 267.421875 Z M 152.578125 296.015625 C 155.859375 296.015625 159.199219 297.246094 161.953125 300 C 167.460938 305.507812 167.460938 313.242188 161.953125 318.75 L 154.453125 326.25 C 153.808594 326.894531 153.28125 327.628906 152.578125 328.125 C 152.519531 328.152344 152.402344 328.097656 152.34375 328.125 C 147.097656 331.757812 140.535156 331.082031 135.703125 326.25 C 132.160156 322.707031 131.339844 315.613281 133.828125 310.3125 C 134.765625 309.582031 135.792969 309.050781 136.640625 308.203125 L 144.140625 300.703125 C 145.136719 299.707031 145.898438 298.535156 146.71875 297.421875 C 148.59375 296.484375 150.613281 296.015625 152.578125 296.015625 Z M 152.578125 296.015625 "/>
</g>
</svg>
