<?xml version="1.0" encoding="UTF-8" standalone="no"?>
<svg
   version="1.1"
   width="14.1732pt"
   height="14.1732pt"
   id="svg3"
   viewBox="0 0 14.1732 14.1732"
   xmlns="http://www.w3.org/2000/svg"
   xmlns:svg="http://www.w3.org/2000/svg">
  <defs
     id="defs3" />
  <g
     id="Layer1000">
    <path
       d="m 10.0304,14.0948 c 0,0.1201 0.2569,0.0094 0.4762,-0.0454 l 1.5965,-0.3988 c 0.715,-0.1786 1.4143,-0.3654 2.1226,-0.5302 V 1.0196 C 14.1144,1.0171 13.3558,0.8136 13.1825,0.7703 12.8905,0.6973 10.1984,-1e-4 10.0304,-1e-4 Z"
       style="fill:#67dbe2;fill-opacity:1;fill-rule:evenodd"
       id="path1" />
    <path
       d="M 5.0414,14.1627 9.2354,13.115 9.2367,1.0422 C 9.1264,0.9894 8.8749,0.9405 8.7378,0.9063 L 7.1595,0.512 C 6.7986,0.4218 6.4597,0.3372 6.1072,0.2491 5.9143,0.2009 5.1776,-1e-4 5.0414,-1e-4 Z"
       style="fill:#67dbe2;fill-opacity:1;fill-rule:evenodd"
       id="path2" />
    <path
       d="M 0.0524,14.1627 4.225,13.1203 V 1.0196 l -4.17,-1.0301 z"
       style="fill:#67dbe2;fill-opacity:1;fill-rule:evenodd"
       id="path3" />
  </g>
</svg>
